<?xml version="1.0" standalone="no"?>
<!DOCTYPE svg PUBLIC "-//W3C//DTD SVG 20010904//EN"
 "http://www.w3.org/TR/2001/REC-SVG-20010904/DTD/svg10.dtd">
<svg version="1.0" xmlns="http://www.w3.org/2000/svg"
 width="800.000000pt" height="556.000000pt" viewBox="0 0 800.000000 556.000000"
 preserveAspectRatio="xMidYMid meet">

<g transform="translate(0.000000,556.000000) scale(0.100000,-0.100000)"
fill="#000000" stroke="none">
<path d="M3839 4453 c-13 -16 -12 -17 4 -4 16 13 21 21 13 21 -2 0 -10 -8 -17
-17z"/>
<path d="M4160 4384 c0 -68 -25 -128 -49 -118 -46 19 -53 17 -104 -39 -49 -52
-54 -55 -87 -48 -27 6 -35 12 -33 28 3 22 -18 30 -107 39 -25 2 -73 10 -107
18 l-63 13 0 -41 c0 -36 4 -43 33 -56 l32 -15 7 -255 c3 -140 13 -310 22 -377
9 -67 16 -124 16 -128 0 -3 -9 -1 -20 5 -12 6 -30 8 -42 4 -18 -5 -20 -11 -14
-58 3 -28 6 -59 6 -69 0 -14 4 -16 19 -7 27 14 110 12 146 -5 l30 -13 -34 -1
c-51 -1 -118 -38 -146 -79 -14 -20 -25 -41 -25 -47 0 -5 8 4 19 20 46 76 105
102 214 92 47 -3 55 -2 35 5 -15 5 -29 17 -32 26 -3 9 -12 88 -21 174 -15 153
-15 160 4 243 28 116 74 205 106 205 31 0 40 -62 40 -285 0 -200 -6 -269 -31
-357 -4 -13 5 -23 31 -35 33 -16 35 -19 19 -30 -16 -12 -16 -19 -5 -79 6 -37
10 -68 8 -70 -2 -3 -12 25 -22 62 -10 36 -24 68 -33 71 -8 4 -41 -8 -73 -26
-33 -18 -59 -30 -59 -28 0 2 25 21 56 41 60 40 64 57 18 67 -66 15 -112 10
-141 -15 -15 -13 -37 -25 -48 -27 -12 -2 -30 -23 -43 -49 -33 -63 -26 -164 17
-257 42 -89 51 -73 12 21 -17 41 -31 77 -31 80 0 3 16 6 35 6 21 0 35 -5 35
-12 0 -9 3 -8 10 2 5 8 10 12 12 10 2 -3 38 -43 80 -90 72 -81 77 -90 108
-190 18 -58 34 -108 37 -113 7 -12 120 71 200 147 97 91 137 169 141 277 3 62
0 83 -17 117 -30 58 -83 96 -137 97 -24 1 -47 4 -50 8 -11 11 56 8 98 -3 21
-6 51 -27 71 -49 66 -73 70 -192 12 -319 -30 -65 -138 -176 -243 -250 -85 -59
-68 -62 -197 34 -133 99 -198 182 -230 297 -13 43 -15 45 -11 14 13 -105 117
-237 277 -352 l81 -58 32 17 c63 34 212 164 258 224 93 122 115 285 51 376
-38 54 -95 86 -155 86 l-48 0 0 83 c0 45 7 159 16 252 18 197 20 456 5 533
-10 51 -9 55 16 89 35 45 44 142 19 191 -9 18 -19 32 -21 32 -3 0 -5 -25 -5
-56z m-225 -259 c-41 -98 -58 -146 -71 -202 -23 -100 -33 -118 -33 -63 -1 62
17 225 29 271 l11 38 34 -17 c19 -9 33 -21 30 -27z m373 -1190 c-8 -18 -19
-25 -39 -25 -15 0 -39 -4 -53 -10 -14 -5 -26 -7 -26 -5 0 8 82 49 127 64 2 1
-3 -10 -9 -24z"/>
<path d="M1416 4312 c-3 -9 -8 -42 -11 -73 -6 -52 -5 -58 16 -73 13 -9 31 -16
39 -16 15 0 14 -8 -1 -85 -24 -120 -47 -334 -55 -515 -4 -85 -11 -163 -15
-172 -5 -9 -19 -20 -31 -24 -13 -4 -26 -12 -30 -17 -5 -8 -13 -6 -25 5 -17 16
-18 14 -18 -30 0 -90 -85 -157 -171 -133 l-38 11 31 -32 c43 -43 113 -50 163
-16 36 25 55 54 65 101 l5 27 130 0 c72 0 130 3 130 8 0 4 -7 57 -15 117 -8
61 -15 168 -15 240 0 123 1 128 17 112 40 -39 71 -172 72 -307 1 -95 15 -143
51 -183 27 -30 32 -32 94 -31 51 0 77 7 128 32 34 17 63 30 64 29 1 -1 68
-116 150 -256 116 -198 162 -267 210 -315 58 -59 131 -106 184 -120 14 -4 -1
7 -33 25 -98 55 -157 131 -331 428 l-159 272 26 77 c32 98 40 153 27 201 -22
83 -71 88 -148 15 -52 -50 -80 -49 -32 1 27 28 34 44 39 97 5 44 15 75 34 102
36 51 47 96 47 186 0 87 -22 144 -66 179 -28 22 -33 23 -181 16 -152 -7 -153
-7 -207 19 -30 15 -72 46 -94 70 -33 35 -42 41 -46 28z m361 -273 c47 -23 99
-78 105 -114 3 -12 1 -32 -4 -45 -8 -22 -15 -23 -63 -5 l-20 8 20 -16 c17 -14
18 -18 5 -27 -25 -16 -106 -11 -157 11 -131 56 -154 160 -43 202 36 13 115 6
157 -14z m7 -350 c-8 -13 -37 -11 -58 4 -15 11 -12 12 23 9 23 -2 38 -8 35
-13z m66 -201 c0 -53 24 -88 60 -88 18 0 40 -26 40 -47 0 -15 -57 -43 -89 -43
-20 0 -34 7 -41 19 -11 22 -13 109 -3 190 5 48 8 52 20 36 7 -11 13 -40 13
-67z m148 -85 c-4 -22 -22 -20 -26 1 -2 10 3 16 13 16 10 0 15 -7 13 -17z"/>
<path d="M3791 4304 c0 -11 3 -14 6 -6 3 7 2 16 -1 19 -3 4 -6 -2 -5 -13z"/>
<path d="M3175 4265 l-110 -30 9 -110 c6 -71 5 -178 -2 -305 -22 -372 -67
-529 -124 -432 -64 109 -41 402 58 733 4 13 -6 17 -54 22 -64 5 -144 36 -178
68 -21 20 -22 20 -27 2 -3 -10 -9 -46 -12 -80 -7 -62 -7 -63 22 -74 15 -6 40
-8 56 -5 15 3 27 4 27 2 0 -2 -14 -36 -31 -77 -55 -135 -81 -252 -82 -374 -1
-124 8 -167 55 -245 41 -68 132 -133 212 -151 48 -10 58 -10 92 7 68 34 104
150 104 334 0 44 3 80 8 80 4 0 19 -35 35 -78 35 -99 96 -210 127 -234 14 -10
39 -21 56 -24 25 -5 38 0 67 26 115 101 111 390 -8 636 -19 38 -32 71 -29 75
2 4 24 12 48 18 35 9 46 17 54 41 l11 30 -129 0 -128 0 14 -52 c41 -153 70
-446 50 -506 -5 -16 -14 -22 -29 -20 -42 6 -92 151 -122 354 -12 83 -13 126
-6 202 10 99 14 107 66 137 10 6 16 19 13 35 l-3 25 -110 -30z"/>
<path d="M5450 4237 c0 -37 4 -44 33 -57 l32 -15 7 -255 c3 -140 13 -310 22
-377 9 -67 16 -124 16 -128 0 -3 -9 -1 -20 5 -12 6 -30 8 -42 4 -18 -5 -20
-11 -14 -58 3 -28 6 -59 6 -69 0 -14 4 -16 19 -7 31 16 112 11 160 -10 55 -25
54 -25 47 8 -3 15 -13 95 -21 179 -14 137 -14 158 0 220 28 126 76 223 109
223 40 0 62 -183 46 -383 -9 -123 -15 -166 -35 -254 -4 -18 5 -27 55 -55 33
-18 60 -35 60 -38 0 -3 -50 -91 -111 -195 -70 -120 -130 -210 -162 -244 -56
-58 -135 -114 -148 -105 -5 3 -9 0 -9 -6 0 -6 -4 -9 -9 -5 -5 3 -12 1 -15 -4
-12 -18 -115 -41 -193 -42 -43 -1 -70 -3 -60 -6 17 -4 18 -12 12 -84 l-7 -79
33 0 c18 0 30 -2 27 -5 -2 -3 -103 2 -223 10 -216 14 -271 14 -179 0 83 -12
81 -20 -11 -31 -82 -10 -85 -11 -35 -13 194 -4 894 -60 1038 -82 60 -10 70
-14 60 -26 -10 -12 -8 -12 14 -3 50 23 99 -31 78 -86 -9 -22 -15 -25 -47 -22
-31 2 -41 9 -54 34 l-15 31 -17 -28 c-26 -46 -86 -38 -115 16 -9 16 -11 17
-12 3 0 -13 -13 -18 -55 -23 -59 -8 -79 1 -96 40 -7 15 -8 12 -4 -14 l5 -34
-52 6 c-66 6 -103 23 -116 51 -10 19 -11 20 -11 2 -1 -11 8 -30 20 -42 l21
-22 -39 4 c-82 9 -532 34 -808 45 -365 14 -1281 6 -1610 -15 -435 -28 -831
-65 -1190 -111 -189 -24 -300 -37 -257 -28 12 2 22 8 22 12 0 4 15 5 34 3 28
-3 37 1 51 22 21 32 11 49 -11 18 -18 -26 -68 -30 -91 -6 -14 14 -17 13 -27
-8 -14 -27 -50 -35 -83 -17 -21 11 -25 10 -40 -10 -14 -21 -21 -23 -65 -17
-54 8 -69 -7 -50 -48 11 -24 23 -24 153 -2 23 4 25 2 21 -25 -3 -21 -10 -29
-25 -29 -11 0 -18 -3 -14 -6 3 -4 18 -4 32 0 20 5 25 13 25 35 0 36 -17 31
280 70 396 52 850 94 1340 123 268 16 1639 16 1685 0 26 -9 27 -10 8 -11 -13
-1 -23 -7 -23 -16 0 -13 -29 -15 -192 -17 l-193 -1 230 -8 c230 -8 676 -34
770 -45 l50 -6 0 -261 0 -262 35 -7 c19 -4 -1 -5 -45 -2 -250 12 -399 15 -385
5 17 -12 12 -14 -60 -29 -25 -6 -37 -10 -27 -11 10 -1 40 -13 68 -27 38 -19
54 -22 64 -14 19 16 71 16 90 0 9 -8 15 -25 13 -39 -3 -22 -9 -26 -40 -29 -27
-2 -43 3 -57 17 -15 15 -21 17 -21 7 0 -8 5 -18 11 -21 6 -4 8 -13 5 -20 -7
-18 16 -21 396 -40 324 -16 848 -51 904 -60 27 -5 31 -9 26 -31 -2 -14 -10
-28 -18 -31 -7 -2 -151 7 -321 21 -373 31 -749 54 -978 60 l-170 5 160 -10
c231 -13 222 -10 227 -65 l3 -45 -385 5 c-212 3 -524 8 -695 12 -616 11 -2003
-29 -2685 -76 -74 -6 -150 -10 -167 -10 -31 0 -33 -2 -33 -36 l0 -37 78 7
c109 9 618 33 942 46 1251 47 2623 38 3860 -25 157 -8 304 -15 328 -15 l42 0
0 66 c0 65 1 68 45 115 38 40 45 55 45 87 0 61 -23 82 -95 87 -33 2 -175 13
-315 24 -140 11 -310 24 -378 27 -69 4 -129 12 -139 19 -34 25 218 28 496 5
139 -11 256 -20 260 -20 3 0 5 26 3 57 l-2 58 16 -29 17 -30 12 25 c27 51 55
150 55 194 0 57 -14 85 -43 85 -66 1 -62 -3 -59 62 l4 60 34 -4 c29 -3 41 2
69 29 19 19 35 38 35 42 0 5 -39 15 -87 21 -338 48 -318 44 -315 67 2 17 -1
20 -21 16 -56 -11 -101 49 -72 93 32 49 105 13 105 -51 0 -17 7 -41 16 -53 16
-23 58 -30 69 -12 3 6 -5 10 -19 10 -30 0 -51 29 -60 82 -6 34 -5 37 21 40 15
2 -72 16 -195 31 -169 22 -232 34 -258 49 -45 26 -43 39 4 33 20 -2 118 -14
217 -26 99 -11 256 -31 348 -45 190 -27 187 -27 169 -15 -11 6 -10 39 2 177 7
93 17 178 21 189 4 11 -14 -21 -39 -72 -25 -50 -58 -101 -72 -112 -38 -30 -80
-27 -113 8 -64 69 -126 369 -133 650 l-3 93 40 13 c60 18 135 59 181 99 l41
35 6 123 c3 74 13 150 25 190 l19 67 -101 3 -101 3 -6 35 c-6 35 -9 32 -24
-15 -2 -8 -16 -15 -30 -15 -21 0 -25 -5 -25 -30 0 -23 -6 -33 -25 -42 -14 -6
-27 -9 -30 -6 -9 9 -24 156 -24 235 0 147 37 264 99 317 49 41 121 33 162 -18
29 -35 23 -56 -15 -56 -65 0 -107 -55 -107 -141 0 -44 4 -55 33 -84 47 -47
106 -63 160 -44 36 12 44 20 57 56 12 35 12 56 3 122 -23 157 -90 228 -230
247 -59 7 -112 -7 -161 -43 -105 -78 -167 -349 -152 -663 l7 -155 -53 -90 -54
-90 0 105 c0 58 7 177 15 265 29 313 15 580 -34 645 -28 38 -46 35 -94 -13
-69 -72 -142 -228 -162 -348 -12 -71 -24 -81 -25 -19 0 78 19 221 39 295 l18
63 -106 17 c-58 9 -121 20 -138 25 l-33 8 0 -41z m931 -674 c4 -26 8 -84 8
-128 1 -95 -15 -128 -57 -123 -40 5 -64 61 -70 167 l-5 88 31 12 c17 7 38 22
48 32 23 26 35 13 45 -48z m-222 -1357 c19 -41 2 -76 -38 -76 -49 0 -83 50
-61 90 18 33 80 24 99 -14z m-1191 -43 c-21 -2 -55 -2 -75 0 -21 2 -4 4 37 4
41 0 58 -2 38 -4z m180 -10 c-10 -2 -26 -2 -35 0 -10 3 -2 5 17 5 19 0 27 -2
18 -5z m449 1 c-3 -3 -12 -4 -19 -1 -8 3 -5 6 6 6 11 1 17 -2 13 -5z m-304
-11 c-7 -2 -19 -2 -25 0 -7 3 -2 5 12 5 14 0 19 -2 13 -5z m400 0 c-7 -2 -19
-2 -25 0 -7 3 -2 5 12 5 14 0 19 -2 13 -5z m114 -9 c-3 -3 -12 -4 -19 -1 -8 3
-5 6 6 6 11 1 17 -2 13 -5z m90 -10 c-3 -3 -12 -4 -19 -1 -8 3 -5 6 6 6 11 1
17 -2 13 -5z m86 -11 c-7 -2 -19 -2 -25 0 -7 3 -2 5 12 5 14 0 19 -2 13 -5z
m100 -10 c-7 -2 -19 -2 -25 0 -7 3 -2 5 12 5 14 0 19 -2 13 -5z m74 -9 c-3 -3
-12 -4 -19 -1 -8 3 -5 6 6 6 11 1 17 -2 13 -5z m86 -11 c-7 -2 -19 -2 -25 0
-7 3 -2 5 12 5 14 0 19 -2 13 -5z m-4710 -40 c-7 -2 -19 -2 -25 0 -7 3 -2 5
12 5 14 0 19 -2 13 -5z m-126 -19 c-3 -3 -12 -4 -19 -1 -8 3 -5 6 6 6 11 1 17
-2 13 -5z m4425 -160 c-12 -8 -22 -23 -23 -32 0 -11 -2 -13 -6 -4 -6 14 24 52
41 52 6 0 0 -7 -12 -16z m-3 -84 c24 0 68 -64 79 -117 6 -24 7 -43 3 -43 -4 0
-26 20 -50 44 -28 28 -41 49 -36 57 5 8 4 10 -3 5 -7 -4 -14 4 -18 21 -3 15
-8 37 -10 48 -5 18 -4 18 6 3 6 -10 19 -18 29 -18z m730 -89 c6 -10 13 -43 16
-73 l5 -53 -20 40 c-17 36 -28 105 -15 105 2 0 9 -9 14 -19z m-1179 -241 c39
-39 -13 -84 -67 -58 -50 24 -38 78 18 78 16 0 38 -9 49 -20z m161 -11 c24 -24
21 -39 -12 -58 -48 -27 -111 26 -79 64 18 22 67 18 91 -6z m153 5 c30 -11 40
-43 20 -65 -21 -23 -52 -24 -82 -3 -52 36 -1 92 62 68z m172 -29 c20 -20 23
-28 14 -45 -19 -36 -110 -15 -110 25 0 16 38 45 58 45 7 0 24 -11 38 -25z
m142 -7 c15 -13 16 -40 0 -56 -17 -17 -58 -15 -80 5 -24 21 -23 39 4 57 22 16
51 13 76 -6z m127 -4 c19 -20 16 -53 -6 -67 -23 -14 -66 -1 -80 25 -10 18 -8
24 11 40 28 22 54 23 75 2z m123 -10 c26 -18 26 -51 1 -67 -23 -14 -66 -1 -80
25 -10 18 -8 24 11 40 27 22 39 23 68 2z m132 -19 c7 -8 10 -25 6 -40 -5 -19
-13 -25 -33 -25 -28 0 -63 25 -63 45 0 33 66 48 90 20z m125 -36 c0 -31 -3
-34 -31 -37 -57 -6 -82 58 -30 78 36 13 61 -3 61 -41z m115 17 c6 -8 10 -25 8
-38 -2 -19 -10 -24 -40 -26 -32 -3 -40 1 -49 22 -9 20 -9 29 1 41 16 19 64 20
80 1z m-157 -153 c-7 -2 -19 -2 -25 0 -7 3 -2 5 12 5 14 0 19 -2 13 -5z
m-1060 -30 c-7 -2 -21 -2 -30 0 -10 3 -4 5 12 5 17 0 24 -2 18 -5z m50 0 c-7
-2 -19 -2 -25 0 -7 3 -2 5 12 5 14 0 19 -2 13 -5z"/>
<path d="M4490 4202 c0 -64 2 -72 19 -72 41 0 51 -25 51 -133 0 -126 17 -389
34 -520 11 -87 10 -97 -4 -91 -58 25 -60 22 -60 -62 0 -61 3 -75 12 -66 19 19
76 14 168 -12 162 -47 204 -44 258 19 56 63 76 135 77 275 0 111 -3 130 -22
167 -26 48 -57 73 -92 73 l-24 0 20 23 c45 48 57 88 61 198 4 93 2 111 -18
148 -15 30 -32 47 -58 58 -35 15 -43 14 -122 -6 -139 -35 -195 -27 -267 42
l-33 31 0 -72z m400 -167 c43 -39 18 -108 -55 -150 -52 -31 -102 -32 -146 -2
-61 41 -50 97 29 148 40 26 54 30 99 26 32 -2 61 -11 73 -22z m8 -414 c48 -24
70 -50 78 -88 5 -25 0 -37 -23 -63 -39 -44 -118 -53 -180 -21 -68 34 -106 98
-84 139 26 50 141 68 209 33z"/>
<path d="M1020 4248 c-79 -22 -139 -104 -176 -238 -26 -92 -27 -462 -1 -563
51 -204 136 -275 279 -233 60 17 99 52 123 110 23 55 25 67 31 176 l4 95 -20
-54 c-38 -104 -93 -157 -154 -149 -60 7 -91 97 -122 347 -35 291 3 461 104
461 27 0 43 -9 73 -39 51 -51 51 -77 1 -91 -45 -12 -65 -31 -87 -83 -19 -46
-19 -80 0 -117 29 -56 130 -85 197 -57 30 13 39 23 49 59 14 53 6 155 -17 223
-24 68 -95 138 -156 153 -55 14 -80 14 -128 0z"/>
<path d="M5394 4244 c-41 -17 -227 -54 -270 -54 -38 0 -42 -13 -23 -68 9 -27
14 -30 39 -25 25 5 30 2 37 -23 12 -44 6 -392 -10 -537 -15 -135 -25 -159 -73
-171 -19 -5 -24 -13 -24 -40 0 -18 -3 -47 -6 -63 l-6 -30 84 18 c89 20 186 23
258 9 25 -4 46 -7 47 -6 1 1 -1 36 -4 78 -6 77 -6 77 -32 72 -17 -4 -32 0 -39
8 -30 37 -40 269 -22 525 10 152 20 196 56 248 14 21 24 45 22 55 -3 15 -7 15
-34 4z"/>
<path d="M2336 4205 c-92 -33 -179 -170 -212 -335 -20 -103 -15 -321 11 -415
40 -144 119 -257 188 -270 45 -9 113 21 150 65 98 116 180 409 181 645 1 116
-2 136 -23 183 -30 65 -76 107 -143 127 -63 18 -101 18 -152 0z m117 -279 c67
-28 117 -111 117 -196 0 -36 -36 -119 -67 -157 -97 -115 -250 -90 -308 51 -19
44 -22 128 -6 168 13 34 77 106 116 130 35 21 102 24 148 4z"/>
<path d="M6856 4205 c-92 -33 -179 -170 -212 -335 -20 -102 -15 -321 11 -414
21 -76 59 -162 91 -203 24 -32 25 -33 4 -33 -12 0 -34 7 -50 15 -28 15 -30 14
-30 -4 0 -30 57 -89 96 -100 52 -14 96 3 172 69 77 67 117 131 162 265 50 148
74 285 74 430 1 116 -2 136 -23 183 -30 65 -76 107 -143 127 -63 18 -101 18
-152 0z m117 -279 c67 -28 117 -111 117 -196 0 -36 -36 -119 -67 -157 -97
-115 -250 -90 -308 51 -19 44 -22 128 -6 168 13 34 77 106 116 130 35 21 102
24 148 4z"/>
<path d="M3632 3100 c0 -14 2 -19 5 -12 2 6 2 18 0 25 -3 6 -5 1 -5 -13z"/>
<path d="M3622 3040 c0 -19 2 -27 5 -17 2 9 2 25 0 35 -3 9 -5 1 -5 -18z"/>
<path d="M6741 3044 c0 -11 3 -14 6 -6 3 7 2 16 -1 19 -3 4 -6 -2 -5 -13z"/>
<path d="M6731 3004 c0 -11 3 -14 6 -6 3 7 2 16 -1 19 -3 4 -6 -2 -5 -13z"/>
<path d="M6721 2964 c0 -11 3 -14 6 -6 3 7 2 16 -1 19 -3 4 -6 -2 -5 -13z"/>
<path d="M1270 2966 c0 -19 43 -176 48 -172 2 3 -6 42 -18 88 -20 75 -30 103
-30 84z"/>
<path d="M6696 2869 c-10 -39 -16 -73 -13 -75 2 -3 12 27 22 66 10 39 16 73
13 75 -2 2 -12 -27 -22 -66z"/>
<path d="M3805 2745 c63 -59 214 -171 165 -123 -18 17 -168 136 -190 151 -8 5
3 -7 25 -28z"/>
<path d="M3863 2433 c20 -2 54 -2 75 0 20 2 3 4 -38 4 -41 0 -58 -2 -37 -4z"/>
<path d="M4028 2433 c28 -2 76 -2 105 0 28 2 5 3 -53 3 -58 0 -81 -1 -52 -3z"/>
<path d="M4218 2433 c6 -2 18 -2 25 0 6 3 1 5 -13 5 -14 0 -19 -2 -12 -5z"/>
<path d="M3388 2423 c6 -2 18 -2 25 0 6 3 1 5 -13 5 -14 0 -19 -2 -12 -5z"/>
<path d="M4623 2423 c15 -2 37 -2 50 0 12 2 0 4 -28 4 -27 0 -38 -2 -22 -4z"/>
<path d="M1490 2416 c0 -2 7 -7 16 -10 8 -3 12 -2 9 4 -6 10 -25 14 -25 6z"/>
<path d="M4443 2373 c9 -2 25 -2 35 0 9 3 1 5 -18 5 -19 0 -27 -2 -17 -5z"/>
<path d="M4748 2363 c6 -2 18 -2 25 0 6 3 1 5 -13 5 -14 0 -19 -2 -12 -5z"/>
<path d="M2248 2343 c7 -3 16 -2 19 1 4 3 -2 6 -13 5 -11 0 -14 -3 -6 -6z"/>
<path d="M2158 2333 c7 -3 16 -2 19 1 4 3 -2 6 -13 5 -11 0 -14 -3 -6 -6z"/>
<path d="M2068 2323 c7 -3 16 -2 19 1 4 3 -2 6 -13 5 -11 0 -14 -3 -6 -6z"/>
<path d="M5850 2326 c0 -2 7 -7 16 -10 8 -3 12 -2 9 4 -6 10 -25 14 -25 6z"/>
<path d="M1978 2313 c6 -2 18 -2 25 0 6 3 1 5 -13 5 -14 0 -19 -2 -12 -5z"/>
<path d="M1898 2303 c6 -2 18 -2 25 0 6 3 1 5 -13 5 -14 0 -19 -2 -12 -5z"/>
<path d="M3941 2298 c-1 -25 35 -58 62 -57 19 1 17 3 -11 15 -18 8 -37 24 -42
37 -7 17 -9 18 -9 5z"/>
<path d="M1823 2293 c9 -2 23 -2 30 0 6 3 -1 5 -18 5 -16 0 -22 -2 -12 -5z"/>
<path d="M2278 2293 c7 -3 16 -2 19 1 4 3 -2 6 -13 5 -11 0 -14 -3 -6 -6z"/>
<path d="M3702 2280 c-6 -11 -26 -24 -44 -29 l-33 -9 32 -1 c24 -1 37 5 49 24
9 14 15 28 12 30 -2 2 -9 -5 -16 -15z"/>
<path d="M3863 2279 c-11 -12 -33 -21 -49 -21 -22 0 -24 -2 -10 -10 26 -15 61
-2 74 27 14 30 12 31 -15 4z"/>
<path d="M4110 2292 c0 -4 7 -18 16 -30 15 -22 67 -31 78 -13 3 4 -5 6 -19 4
-16 -4 -32 3 -49 20 -14 15 -26 23 -26 19z"/>
<path d="M4280 2289 c1 -34 50 -66 78 -50 14 9 13 10 -10 11 -17 0 -34 10 -47
26 -12 15 -21 21 -21 13z"/>
<path d="M4440 2289 c1 -34 50 -66 78 -50 14 9 13 10 -10 11 -17 0 -34 10 -47
26 -12 15 -21 21 -21 13z"/>
<path d="M4610 2290 c0 -32 30 -60 63 -59 l32 1 -32 9 c-19 6 -39 21 -47 37
-9 15 -15 20 -16 12z"/>
<path d="M1748 2283 c6 -2 18 -2 25 0 6 3 1 5 -13 5 -14 0 -19 -2 -12 -5z"/>
<path d="M2178 2283 c7 -3 16 -2 19 1 4 3 -2 6 -13 5 -11 0 -14 -3 -6 -6z"/>
<path d="M3535 2270 c-10 -11 -31 -20 -49 -21 -29 0 -30 -1 -8 -10 28 -11 56
2 72 31 14 25 8 25 -15 0z"/>
<path d="M1673 2273 c9 -2 25 -2 35 0 9 3 1 5 -18 5 -19 0 -27 -2 -17 -5z"/>
<path d="M2088 2273 c7 -3 16 -2 19 1 4 3 -2 6 -13 5 -11 0 -14 -3 -6 -6z"/>
<path d="M3203 2260 c-7 -10 -27 -24 -45 -29 l-33 -9 31 -1 c32 -1 69 28 62
49 -1 5 -9 1 -15 -10z"/>
<path d="M3367 2267 c-3 -9 -21 -20 -39 -26 l-33 -9 31 -1 c33 -1 59 19 52 41
-3 8 -6 6 -11 -5z"/>
<path d="M4780 2268 c0 -21 33 -48 58 -48 31 0 35 15 4 17 -15 0 -34 11 -44
23 -12 15 -18 18 -18 8z"/>
<path d="M4940 2264 c0 -29 31 -54 66 -53 l29 1 -34 12 c-18 6 -39 23 -47 36
-12 23 -13 24 -14 4z"/>
<path d="M1476 2249 c-66 -11 -122 -21 -124 -23 -2 -2 -2 -15 0 -28 l3 -23
140 21 c82 13 122 22 98 23 -64 2 -57 27 10 39 97 18 -5 10 -127 -9z"/>
<path d="M1998 2263 c7 -3 16 -2 19 1 4 3 -2 6 -13 5 -11 0 -14 -3 -6 -6z"/>
<path d="M3037 2244 c-11 -15 -28 -24 -45 -24 -23 -1 -24 -2 -10 -11 22 -12
53 2 69 32 15 30 7 31 -14 3z"/>
<path d="M5110 2255 c0 -11 4 -25 8 -31 12 -19 50 -34 68 -27 13 5 9 9 -17 17
-18 6 -39 22 -46 36 -11 22 -13 22 -13 5z"/>
<path d="M1908 2253 c6 -2 18 -2 25 0 6 3 1 5 -13 5 -14 0 -19 -2 -12 -5z"/>
<path d="M2873 2240 c-7 -11 -27 -24 -45 -29 l-33 -9 32 -1 c33 -1 63 20 63
45 0 19 -3 18 -17 -6z"/>
<path d="M1828 2243 c6 -2 18 -2 25 0 6 3 1 5 -13 5 -14 0 -19 -2 -12 -5z"/>
<path d="M5280 2231 c0 -35 77 -70 94 -42 3 5 -6 9 -21 9 -17 0 -36 10 -50 26
-21 24 -23 25 -23 7z"/>
<path d="M1743 2233 c9 -2 23 -2 30 0 6 3 -1 5 -18 5 -16 0 -22 -2 -12 -5z"/>
<path d="M2537 2214 c-11 -15 -28 -24 -44 -24 -20 0 -24 -3 -16 -11 16 -16 60
-3 73 22 17 31 7 40 -13 13z"/>
<path d="M2705 2224 c-6 -8 -26 -19 -45 -24 l-35 -8 36 -1 c36 -1 64 18 57 39
-1 5 -8 3 -13 -6z"/>
<path d="M1663 2223 c9 -2 25 -2 35 0 9 3 1 5 -18 5 -19 0 -27 -2 -17 -5z"/>
<path d="M2385 2208 c-6 -13 -25 -28 -45 -35 l-35 -12 31 0 c34 -1 68 28 62
54 -2 13 -5 11 -13 -7z"/>
<path d="M6383 2213 c9 -2 23 -2 30 0 6 3 -1 5 -18 5 -16 0 -22 -2 -12 -5z"/>
<path d="M6468 2203 c6 -2 18 -2 25 0 6 3 1 5 -13 5 -14 0 -19 -2 -12 -5z"/>
<path d="M2216 2185 c-3 -9 -20 -22 -38 -30 -31 -13 -32 -14 -7 -15 29 0 53
17 62 43 8 21 -9 23 -17 2z"/>
<path d="M2067 2164 c-11 -15 -28 -24 -45 -24 -23 -1 -25 -2 -9 -11 23 -13 54
-3 68 22 16 31 6 40 -14 13z"/>
<path d="M1817 2143 c-4 -11 -24 -28 -45 -37 l-37 -15 31 0 c36 -1 68 28 62
56 -4 16 -5 16 -11 -4z"/>
<path d="M1936 2145 c-3 -9 -20 -18 -37 -22 -25 -5 -28 -8 -15 -15 10 -5 23
-5 36 2 22 12 46 50 31 50 -5 0 -11 -7 -15 -15z"/>
<path d="M3903 2133 c64 -2 170 -2 235 0 64 1 11 3 -118 3 -129 0 -182 -2
-117 -3z"/>
<path d="M6430 2120 c0 -33 17 -50 50 -50 l25 0 -25 13 c-13 7 -30 24 -37 37
l-13 25 0 -25z"/>
<path d="M3453 2123 c20 -2 54 -2 75 0 20 2 3 4 -38 4 -41 0 -58 -2 -37 -4z"/>
<path d="M3208 2113 c12 -2 32 -2 45 0 12 2 2 4 -23 4 -25 0 -35 -2 -22 -4z"/>
<path d="M3013 2103 c9 -2 25 -2 35 0 9 3 1 5 -18 5 -19 0 -27 -2 -17 -5z"/>
<path d="M6547 2089 c7 -27 49 -47 65 -31 9 9 7 12 -10 12 -12 0 -27 9 -34 20
-17 26 -28 26 -21 -1z"/>
<path d="M2858 2093 c6 -2 18 -2 25 0 6 3 1 5 -13 5 -14 0 -19 -2 -12 -5z"/>
<path d="M2718 2083 c6 -2 18 -2 25 0 6 3 1 5 -13 5 -14 0 -19 -2 -12 -5z"/>
<path d="M2598 2073 c7 -3 16 -2 19 1 4 3 -2 6 -13 5 -11 0 -14 -3 -6 -6z"/>
<path d="M2478 2063 c7 -3 16 -2 19 1 4 3 -2 6 -13 5 -11 0 -14 -3 -6 -6z"/>
<path d="M2368 2053 c7 -3 16 -2 19 1 4 3 -2 6 -13 5 -11 0 -14 -3 -6 -6z"/>
<path d="M2268 2043 c7 -3 16 -2 19 1 4 3 -2 6 -13 5 -11 0 -14 -3 -6 -6z"/>
<path d="M3880 1953 c-12 -8 -17 -20 -13 -30 4 -9 2 -14 -3 -11 -5 4 -9 -15
-10 -40 0 -26 2 -39 4 -29 2 10 13 17 26 17 36 0 88 -67 101 -129 l7 -34 -28
20 c-51 36 -84 71 -81 85 2 7 2 9 -1 4 -2 -4 -8 -2 -13 5 -5 8 -9 9 -9 4 0
-18 56 -80 99 -109 l41 -29 57 44 c31 24 64 60 74 79 25 46 25 111 0 141 -18
22 -27 24 -125 25 -75 1 -112 -3 -126 -13z m30 2 c0 -2 -10 -9 -22 -15 -22
-11 -22 -10 -4 4 21 17 26 19 26 11z"/>
<path d="M4918 1929 c-37 -40 -39 -89 -4 -89 42 0 96 -87 101 -162 0 -16 18
-9 60 22 83 62 118 140 91 205 -19 44 -56 60 -109 47 -24 -6 -51 -7 -70 -1
-41 12 -37 13 -69 -22z"/>
<path d="M2859 1929 c-58 -58 -21 -164 84 -240 l39 -29 45 33 c49 35 100 94
89 104 -3 3 -6 0 -6 -8 0 -12 -2 -11 -11 1 -9 13 -10 12 -5 -2 3 -12 -11 -31
-46 -63 -28 -25 -53 -44 -55 -41 -10 10 22 87 49 120 32 39 74 49 80 19 2 -10
4 6 3 34 -2 83 -15 91 -142 91 -89 0 -108 -3 -124 -19z m246 -9 c26 -28 15
-31 -12 -3 -12 13 -19 23 -14 23 4 0 16 -9 26 -20z"/>
<path d="M4891 1924 c-42 -54 -16 -142 60 -208 24 -20 47 -36 53 -36 6 0 3 7
-6 14 -10 7 -14 17 -10 21 4 5 2 5 -4 2 -15 -8 -77 50 -68 65 5 7 3 8 -6 3
-10 -6 -12 -4 -7 9 4 9 3 15 -2 12 -12 -8 -21 18 -21 60 0 24 8 43 25 59 13
14 20 25 15 25 -5 0 -18 -12 -29 -26z"/>
<path d="M2105 1880 c-11 -5 -41 -6 -66 -3 -58 7 -86 -8 -98 -52 -15 -56 5
-113 61 -167 69 -67 81 -69 135 -17 49 48 77 94 69 112 -2 7 -5 4 -5 -6 -1
-10 -5 -15 -11 -12 -5 3 -7 0 -4 -9 6 -15 -79 -116 -90 -106 -10 11 13 82 39
122 19 28 32 39 45 35 14 -4 19 3 23 32 4 29 0 40 -20 59 -25 23 -45 26 -78
12z m90 -31 c13 -20 0 -15 -25 9 -23 22 -23 24 -3 13 12 -6 25 -16 28 -22z"/>
<path d="M1425 1811 c-3 -5 -14 -7 -26 -4 -12 4 -25 0 -30 -8 -17 -26 -10
-136 12 -196 33 -90 42 -94 69 -32 23 55 32 159 18 210 -8 28 -33 45 -43 30z
m34 -161 c-4 -27 -12 -57 -18 -67 -9 -15 -10 -12 -11 18 0 39 18 99 29 99 5 0
4 -22 0 -50z"/>
<path d="M2212 1790 c0 -14 2 -19 5 -12 2 6 2 18 0 25 -3 6 -5 1 -5 -13z"/>
<path d="M3473 1563 c9 -2 25 -2 35 0 9 3 1 5 -18 5 -19 0 -27 -2 -17 -5z"/>
<path d="M4523 1563 c26 -2 68 -2 95 0 26 2 4 3 -48 3 -52 0 -74 -1 -47 -3z"/>
<path d="M4948 1553 c7 -3 16 -2 19 1 4 3 -2 6 -13 5 -11 0 -14 -3 -6 -6z"/>
<path d="M3533 1513 c15 -2 39 -2 55 0 15 2 2 4 -28 4 -30 0 -43 -2 -27 -4z"/>
<path d="M4328 1513 c29 -2 74 -2 100 0 26 2 2 3 -53 3 -55 0 -76 -1 -47 -3z"/>
<path d="M4843 1503 c15 -2 37 -2 50 0 12 2 0 4 -28 4 -27 0 -38 -2 -22 -4z"/>
<path d="M1552 1464 c-135 -13 -157 -17 -193 -41 -21 -14 -38 -27 -36 -29 2
-2 75 3 162 11 88 8 203 19 255 24 52 4 77 9 55 10 -46 2 -71 14 -61 30 4 7 0
10 -11 10 -10 -1 -87 -8 -171 -15z"/>
<path d="M3865 1444 c-6 -8 -26 -19 -45 -24 l-35 -8 36 -1 c36 -1 64 18 57 39
-1 5 -8 3 -13 -6z"/>
<path d="M3930 1452 c0 -17 42 -42 70 -41 25 1 24 1 -4 9 -15 5 -37 17 -47 26
-10 9 -19 12 -19 6z"/>
<path d="M4100 1447 c0 -21 30 -37 67 -36 26 1 26 2 -7 9 -18 5 -40 16 -47 26
-12 16 -13 16 -13 1z"/>
<path d="M3526 1435 c-11 -8 -34 -15 -50 -15 -26 -1 -28 -2 -14 -11 23 -13 66
-1 79 22 12 23 10 23 -15 4z"/>
<path d="M3699 1441 c-3 -8 -21 -20 -40 -27 -31 -11 -32 -13 -8 -13 31 -1 63
21 57 40 -4 12 -5 12 -9 0z"/>
<path d="M4280 1437 c0 -22 54 -41 77 -28 15 9 13 10 -14 11 -17 0 -39 7 -47
16 -13 13 -16 13 -16 1z"/>
<path d="M4600 1437 c0 -30 70 -62 84 -39 2 4 -7 9 -22 10 -15 1 -35 11 -44
23 -14 16 -18 18 -18 6z"/>
<path d="M2863 1421 c-7 -11 -27 -21 -45 -24 l-33 -4 36 -1 c36 -2 64 17 57
38 -2 6 -9 1 -15 -9z"/>
<path d="M3035 1430 c-4 -7 -21 -18 -39 -26 -25 -11 -27 -13 -10 -14 24 0 73
35 63 45 -4 3 -10 1 -14 -5z"/>
<path d="M3200 1433 c0 -6 -17 -18 -37 -26 -28 -12 -32 -16 -17 -16 25 -1 72
34 62 45 -5 4 -8 3 -8 -3z"/>
<path d="M3356 1431 c-4 -6 -21 -15 -39 -20 -29 -8 -30 -9 -6 -10 27 -1 68 23
57 34 -3 3 -9 2 -12 -4z"/>
<path d="M4440 1433 c0 -19 25 -33 60 -32 l35 1 -32 8 c-18 4 -40 13 -48 20
-8 7 -15 8 -15 3z"/>
<path d="M4780 1428 c0 -21 30 -38 62 -37 19 0 18 2 -10 12 -18 7 -37 19 -42
27 -8 13 -10 12 -10 -2z"/>
<path d="M4940 1427 c0 -21 30 -37 67 -36 26 1 26 2 -7 9 -18 5 -40 16 -47 26
-12 16 -13 16 -13 1z"/>
<path d="M2533 1401 c-7 -11 -27 -21 -45 -24 l-33 -4 36 -1 c36 -2 64 17 57
38 -2 6 -9 1 -15 -9z"/>
<path d="M2691 1406 c-7 -8 -27 -17 -44 -19 -32 -4 -32 -4 4 -5 33 -2 70 20
57 33 -3 3 -11 -1 -17 -9z"/>
<path d="M2381 1402 c-1 -7 -16 -21 -33 -32 -20 -12 -26 -20 -17 -20 25 0 63
34 56 51 -4 9 -6 10 -6 1z"/>
<path d="M3988 1383 c6 -2 18 -2 25 0 6 3 1 5 -13 5 -14 0 -19 -2 -12 -5z"/>
<path d="M2066 1365 c-3 -8 -16 -20 -28 -25 l-23 -9 22 0 c20 -1 51 34 40 45
-2 3 -7 -2 -11 -11z"/>
<path d="M2206 1371 c-4 -6 -21 -15 -39 -20 l-32 -9 31 -1 c29 -1 64 23 51 35
-3 3 -8 1 -11 -5z"/>
<path d="M3408 1373 c12 -2 30 -2 40 0 9 3 -1 5 -23 4 -22 0 -30 -2 -17 -4z"/>
<path d="M4563 1373 c15 -2 39 -2 55 0 15 2 2 4 -28 4 -30 0 -43 -2 -27 -4z"/>
<path d="M3118 1363 c6 -2 18 -2 25 0 6 3 1 5 -13 5 -14 0 -19 -2 -12 -5z"/>
<path d="M4903 1363 c9 -2 25 -2 35 0 9 3 1 5 -18 5 -19 0 -27 -2 -17 -5z"/>
<path d="M1921 1346 c-7 -8 -25 -17 -39 -19 -25 -4 -25 -4 4 -6 29 -1 64 22
52 34 -3 3 -11 -1 -17 -9z"/>
<path d="M1663 1331 c-7 -11 -23 -21 -35 -24 -21 -4 -21 -4 3 -6 27 -1 54 20
47 39 -2 6 -9 1 -15 -9z"/>
<path d="M1783 1326 c-13 -6 -23 -14 -23 -17 0 -10 39 1 46 13 9 14 2 15 -23
4z"/>
<path d="M2365 1329 c-211 -14 -800 -59 -933 -71 l-123 -11 33 -34 34 -34 265
25 c226 22 540 47 917 72 77 5 91 9 81 20 -6 8 -9 21 -5 29 6 17 -47 18 -269
4z"/>
<path d="M1540 1315 c-7 -8 -19 -15 -26 -15 -8 0 -14 -4 -14 -10 0 -5 4 -10 9
-10 14 0 57 38 50 44 -3 4 -12 0 -19 -9z"/>
<path d="M1411 1306 c-7 -8 -22 -17 -34 -19 -19 -4 -18 -4 4 -6 25 -1 58 23
47 34 -3 3 -11 -1 -17 -9z"/>
<path d="M3513 1313 c37 -2 96 -2 130 0 34 2 4 3 -68 3 -71 0 -99 -1 -62 -3z"/>
<path d="M4233 1313 c59 -2 155 -2 215 0 59 1 10 3 -108 3 -118 0 -167 -2
-107 -3z"/>
<path d="M3158 1303 c17 -2 47 -2 65 0 17 2 3 4 -33 4 -36 0 -50 -2 -32 -4z"/>
<path d="M4743 1303 c31 -2 83 -2 115 0 31 2 5 3 -58 3 -63 0 -89 -1 -57 -3z"/>
<path d="M2918 1293 c12 -2 32 -2 45 0 12 2 2 4 -23 4 -25 0 -35 -2 -22 -4z"/>
<path d="M2718 1283 c12 -2 30 -2 40 0 9 3 -1 5 -23 4 -22 0 -30 -2 -17 -4z"/>
</g>
</svg>
